<svg xmlns="http://www.w3.org/2000/svg" width="32" height="32" viewBox="0 0 32 32">
    <g fill="none" fill-rule="evenodd">
        <g>
            <g>
                <g>
                    <path fill="#000" fill-opacity=".8" fill-rule="nonzero" d="M-.221 1.827c0-1.132.918-2.05 2.05-2.05h8.196c1.132 0 2.05.918 2.05 2.05v16.4c0 1.132-.918 2.05-2.05 2.05H1.829c-1.132 0-2.05-.918-2.05-2.05v-16.4zm1.366 16.4c0 .377.306.683.684.683h8.196c.377 0 .683-.305.683-.683v-16.4c0-.377-.306-.683-.683-.683H1.83c-.378 0-.683.306-.684.683v16.4z" transform="translate(-16 -87) translate(16 87) translate(10 6)"/>
                    <path stroke="#323232" d="M6.434 2.852L9.069 2.852 9.069 5.526M5.395 17.204L2.76 17.204 2.76 14.53M2.76 17.204L6.059 13.856M9.069 2.852L5.825 6.144" transform="translate(-16 -87) translate(16 87) translate(10 6)"/>
                </g>
            </g>
        </g>
    </g>
</svg>
