<svg xmlns="http://www.w3.org/2000/svg" width="32" height="32" viewBox="0 0 32 32">
    <g fill="none" fill-rule="evenodd" stroke-linecap="round">
        <g stroke="#333" stroke-width="1.2">
            <g>
                <g>
                    <path d="M3.168.803C4.462.268 5.896 0 7.47 0c1.574 0 3.215.513 4.922 1.54M0 5.587c2.041-2.022 4.318-3.034 6.83-3.034 2.513 0 4.88 1.078 7.1 3.234M7.058 10.251c-.257 1.172.059 2.204.948 3.095.89.892 2.274 1.318 4.154 1.276" transform="translate(-113 -612) translate(113 612) translate(9 8)"/>
                    <path d="M1.919 14.621c-.395-2.073-.52-3.52-.377-4.343.603-3.464 2.841-5.195 5.423-5.108 2.28.077 4.206 1.38 5.468 2.867.966 1.138 1.386 2.456 1.266 3.09-.164.86-.743 1.263-1.337 1.31-.594.046-1.503-.303-1.815-1.504-.305-1.177-.845-2.104-1.336-2.483-.606-.469-1.103-.575-1.882-.661-1.599-.178-2.585.853-2.893 2.148-.308 1.295-.084 2.59.335 3.663.82 2.1 2.554 3.273 5.198 3.52" transform="translate(-113 -612) translate(113 612) translate(9 8)"/>
                </g>
            </g>
        </g>
    </g>
</svg>
