<svg xmlns="http://www.w3.org/2000/svg" width="32" height="32" viewBox="0 0 32 32">
    <g fill="none" fill-opacity=".8" fill-rule="evenodd">
        <g fill="#000" fill-rule="nonzero">
            <path d="M16.434 7.5c.855 0 1.552.659 1.623 1.493l.006.141v12.732c0 .853-.652 1.556-1.488 1.628l-.141.006h-6.305c-.854 0-1.552-.659-1.623-1.493l-.006-.141V9.133c0-.852.653-1.555 1.488-1.627l.141-.006h6.305zm0 1.103H10.13l-.085.008c-.222.036-.397.213-.434.437l-.007.086v12.732l.007.086c.037.224.212.4.434.437l.085.007h6.305l.085-.006c.222-.037.398-.214.434-.438l.007-.086V9.134l-.007-.086c-.036-.224-.212-.401-.434-.438l-.085-.007zm5.342 3.311c-.546-.545.282-1.373.827-.827 2.42 2.42 2.42 6.344 0 8.765-.545.545-1.373-.283-.827-.828 1.963-1.963 1.963-5.146 0-7.11zm-1.902 1.266c-.546-.545.282-1.373.827-.828 1.722 1.722 1.722 4.513 0 6.234-.545.545-1.373-.282-.827-.828 1.264-1.264 1.264-3.314 0-4.578zm-6.668-3.327c.52 0 .941.421.941.941s-.421.941-.941.941-.941-.421-.941-.94c0-.52.421-.942.94-.942z" transform="translate(-22 -164) translate(22 164)"/>
        </g>
    </g>
</svg>
