<svg xmlns="http://www.w3.org/2000/svg" width="32" height="32" viewBox="0 0 32 32">
    <g fill="none" fill-rule="evenodd">
        <g fill="#313131" fill-rule="nonzero">
            <g>
                <path d="M16 8.85c1.593 0 3.064.521 4.253 1.402l-.962.91c-.938-.638-2.07-1.012-3.291-1.012-3.23 0-5.85 2.62-5.85 5.85 0 3.23 2.62 5.85 5.85 5.85 3.23 0 5.85-2.62 5.85-5.85 0-.326-.027-.646-.078-.958l1.096-1.038c.184.634.282 1.303.282 1.996 0 3.949-3.201 7.15-7.15 7.15-3.949 0-7.15-3.201-7.15-7.15 0-3.949 3.201-7.15 7.15-7.15zm5.642 1.89l1.028 1.028-6.69 6.703-3.18-3.18 1.029-1.03 2.152 2.153 5.66-5.675z" transform="translate(-22 -72) translate(22 72)"/>
            </g>
        </g>
    </g>
</svg>
