<svg xmlns="http://www.w3.org/2000/svg" width="32" height="32" viewBox="0 0 32 32">
    <g fill="none" fill-rule="evenodd">
        <g fill="#333" fill-rule="nonzero">
            <g>
                <g>
                    <path d="M17.473 8.121c.29 0 .527-.236.527-.527 0-.291-.236-.528-.527-.528h-2.32V5.31h2.32c.29 0 .527-.237.527-.528 0-.291-.236-.527-.527-.527h-2.32v-.352c0-.581-.474-1.054-1.055-1.054h-.352V.528c0-.292-.236-.528-.527-.528-.291 0-.528.236-.528.527v2.32h-1.757V.528c0-.29-.237-.527-.528-.527-.291 0-.527.236-.527.527v2.32H8.12V.528c0-.29-.236-.527-.527-.527-.291 0-.528.236-.528.527v2.32H5.31V.528C5.309.237 5.072 0 4.78 0c-.291 0-.527.236-.527.527v2.32h-.352c-.581 0-1.054.474-1.054 1.055v.352H.528C.235 4.254 0 4.49 0 4.78c0 .291.236.528.527.528h2.32v1.757H.528c-.29 0-.527.237-.527.528 0 .291.236.527.527.527h2.32V9.88H.528c-.29 0-.527.236-.527.527 0 .291.236.528.527.528h2.32v1.757H.528c-.29 0-.527.237-.527.528 0 .291.236.527.527.527h2.32v.352c0 .581.474 1.054 1.055 1.054h.352v2.32c0 .292.236.528.527.528.291 0 .528-.236.528-.527v-2.32h1.757v2.32c0 .29.237.527.528.527.291 0 .527-.236.527-.527v-2.32H9.88v2.32c0 .29.236.527.527.527.291 0 .528-.236.528-.527v-2.32h1.757v2.32c0 .29.237.527.528.527.291 0 .527-.236.527-.527v-2.32h.352c.581 0 1.054-.474 1.054-1.055v-.352h2.32c.292 0 .528-.236.528-.527 0-.291-.236-.528-.527-.528h-2.32v-1.757h2.32c.29 0 .527-.237.527-.528 0-.291-.236-.527-.527-.527h-2.32V8.12h2.32zm-3.375 5.977H3.902V3.902h10.196c0 10.479.003 10.196 0 10.196z" transform="translate(-113 -342) translate(113 342) translate(7 7)"/>
                    <path d="M11.13 5.815c-.098-.1-.232-.155-.372-.155H7.242c-.14 0-.274.056-.373.155L5.815 6.869c-.1.1-.155.233-.155.373v3.516c0 .14.056.274.155.373l1.054 1.054c.1.1.233.155.373.155h3.516c.14 0 .274-.056.373-.155l1.054-1.054c.1-.1.155-.233.155-.373V7.242c0-.14-.056-.274-.155-.373l-1.054-1.054zm.155 4.724l-.746.746H7.461l-.746-.746V7.461l.746-.746h3.078l.746.746v3.078z" transform="translate(-113 -342) translate(113 342) translate(7 7)"/>
                </g>
            </g>
        </g>
    </g>
</svg>
