<svg xmlns="http://www.w3.org/2000/svg" width="32" height="32" viewBox="0 0 32 32">
    <g fill="none" fill-opacity=".8" fill-rule="evenodd">
        <g fill="#000" fill-rule="nonzero">
            <path d="M12.2 16.4c1.767 0 3.2 1.433 3.2 3.2 0 1.767-1.433 3.2-3.2 3.2-1.767 0-3.2-1.433-3.2-3.2 0-1.767 1.433-3.2 3.2-3.2zm7.4 0c1.767 0 3.2 1.433 3.2 3.2 0 1.767-1.433 3.2-3.2 3.2-1.767 0-3.2-1.433-3.2-3.2 0-1.767 1.433-3.2 3.2-3.2zm-7.4 1.2c-1.105 0-2 .895-2 2s.895 2 2 2 2-.895 2-2-.895-2-2-2zm7.4 0c-1.105 0-2 .895-2 2s.895 2 2 2 2-.895 2-2-.895-2-2-2zM12.2 9c1.767 0 3.2 1.433 3.2 3.2 0 1.767-1.433 3.2-3.2 3.2-1.767 0-3.2-1.433-3.2-3.2C9 10.433 10.433 9 12.2 9zm7.4 0c1.767 0 3.2 1.433 3.2 3.2 0 1.767-1.433 3.2-3.2 3.2-1.767 0-3.2-1.433-3.2-3.2 0-1.767 1.433-3.2 3.2-3.2zm-7.4 1.2c-1.105 0-2 .895-2 2s.895 2 2 2 2-.895 2-2-.895-2-2-2zm7.4 0c-1.105 0-2 .895-2 2s.895 2 2 2 2-.895 2-2-.895-2-2-2z" transform="translate(-22 -306) translate(22 306)"/>
        </g>
    </g>
</svg>
