<svg xmlns="http://www.w3.org/2000/svg" width="32" height="32" viewBox="0 0 32 32">
    <g fill="none" fill-rule="evenodd">
        <g fill="#333" fill-rule="nonzero">
            <g>
                <g>
                    <path d="M0 1.9C0 .85.794 0 1.773 0h17.454C20.207 0 21 .85 21 1.9v13.2c0 1.05-.794 1.9-1.773 1.9H1.773C.794 17 0 16.15 0 15.1V1.9zm1.445 12.984c0 .34.258.615.576.615l16.848.001c.318 0 .576-.276.576-.615V2.115c0-.34-.258-.615-.576-.615H2.021c-.318 0-.576.276-.576.616v12.768z" transform="translate(-477 -342) translate(477 342) translate(5.5 7.5)"/>
                    <path d="M11.5 6.75c.918 0 1.671.707 1.744 1.606l.006.144v7h-1.5v-7c0-.118-.082-.217-.193-.243L11.5 8.25H.5v-1.5h11z" transform="translate(-477 -342) translate(477 342) translate(5.5 7.5)"/>
                </g>
            </g>
        </g>
    </g>
</svg>
