<svg xmlns="http://www.w3.org/2000/svg" width="32" height="32" viewBox="0 0 32 32">
    <g fill="none" fill-rule="evenodd">
        <g>
            <g>
                <g transform="translate(-16 -131) translate(16 131) translate(7 9)">
                    <path fill="#333" fill-rule="nonzero" d="M0 1.337C0 .599.559 0 1.248 0h16.504C18.442 0 19 .599 19 1.337v10.696c0 .739-.559 1.337-1.248 1.337H1.248C.558 13.37 0 12.772 0 12.033V1.337zm1.017 10.545c0 .239.181.432.405.432H17.5c.224 0 .406-.193.406-.432V1.489c0-.24-.182-.433-.406-.433H1.422c-.224 0-.405.194-.405.433v10.393z"/>
                    <path stroke="#323232" d="M14.555 2.78L16.666 2.78 16.666 4.891M4.856 10.592L2.744 10.592 2.744 8.481M2.744 10.592L5.388 7.949M16.666 2.78L14.067 5.378"/>
                    <rect width="5.63" height="1.056" x="6.685" y="14.778" fill="#000" fill-opacity=".8" rx=".528"/>
                </g>
                <g transform="translate(-16 -131) translate(16 131) translate(7 9)">
                    <path fill="#333" fill-rule="nonzero" d="M0 1.337C0 .599.559 0 1.248 0h16.504C18.442 0 19 .599 19 1.337v10.696c0 .739-.559 1.337-1.248 1.337H1.248C.558 13.37 0 12.772 0 12.033V1.337zm1.017 10.545c0 .239.181.432.405.432H17.5c.224 0 .406-.193.406-.432V1.489c0-.24-.182-.433-.406-.433H1.422c-.224 0-.405.194-.405.433v10.393z"/>
                    <path stroke="#323232" d="M14.555 2.78L16.666 2.78 16.666 4.891M4.856 10.592L2.744 10.592 2.744 8.481M2.744 10.592L5.388 7.949M16.666 2.78L14.067 5.378"/>
                    <rect width="5.63" height="1.056" x="6.685" y="14.778" fill="#000" fill-opacity=".8" rx=".528"/>
                </g>
            </g>
        </g>
    </g>
</svg>
