<svg xmlns="http://www.w3.org/2000/svg" width="32" height="32" viewBox="0 0 32 32">
    <g fill="none" fill-rule="evenodd">
        <g fill="#333" fill-rule="nonzero">
            <g>
                <path d="M18.652 23.609c.288 0 .522.233.522.521 0 .289-.234.522-.522.522H14.13c-.288 0-.521-.233-.521-.522 0-.288.233-.521.521-.521h4.522zM24.55 9c.681 0 1.234.592 1.234 1.322v10.574c0 .73-.553 1.321-1.234 1.321H8.234c-.681 0-1.234-.591-1.234-1.321V10.322C7 9.592 7.553 9 8.234 9h16.315zm-.249 1.043H8.406c-.221 0-.4.192-.4.429v10.274c0 .236.179.428.4.428H24.3c.221 0 .4-.192.4-.428V10.472c0-.237-.179-.429-.4-.429z" transform="translate(-477 -445) translate(477 445)"/>
            </g>
        </g>
    </g>
</svg>
